<?xml version="1.0" standalone="no"?>
<!DOCTYPE svg PUBLIC "-//W3C//DTD SVG 20010904//EN"
 "http://www.w3.org/TR/2001/REC-SVG-20010904/DTD/svg10.dtd">
<svg version="1.0" xmlns="http://www.w3.org/2000/svg"
 width="526.000000pt" height="526.000000pt" viewBox="0 0 526.000000 526.000000"
 preserveAspectRatio="xMidYMid meet">
<metadata>
Created by potrace 1.14, written by Peter Selinger 2001-2017
</metadata>
<g transform="translate(0.000000,526.000000) scale(0.100000,-0.100000)"
fill="#000000" stroke="none">
<path d="M390 5223 c-28 -4 -36 -7 -130 -52 -149 -70 -242 -218 -249 -399 -3
-70 14 -162 37 -207 13 -26 15 -246 15 -1945 -1 -1880 -1 -1916 -20 -1960 -76
-173 -26 -408 112 -528 112 -99 311 -144 470 -107 66 15 151 53 193 85 21 17
132 18 2225 18 1540 0 2202 3 2202 10 0 6 -126 185 -280 397 -361 498 -400
553 -430 595 -13 19 -50 71 -82 115 -33 44 -184 253 -337 465 -153 211 -292
402 -308 425 -16 22 -65 90 -109 150 -43 61 -82 115 -87 120 -4 6 -36 50 -71
98 l-63 88 29 42 c16 23 117 168 223 322 107 154 197 282 200 285 3 3 26 37
52 75 45 68 104 153 183 265 21 30 72 102 112 160 137 198 232 335 291 420
152 219 369 531 406 585 23 33 88 126 144 206 56 81 102 149 102 153 0 3 -979
6 -2176 6 l-2176 0 -37 28 c-44 35 -116 68 -173 82 -42 9 -217 12 -268 3z
m571 -790 c0 -21 2 -45 3 -53 2 -8 6 -44 10 -80 4 -36 9 -83 11 -105 6 -58 14
-141 20 -215 3 -36 8 -87 10 -115 2 -27 7 -91 10 -140 7 -94 9 -136 22 -375 9
-185 9 -1119 0 -1310 -11 -205 -16 -295 -22 -375 -2 -38 -7 -104 -10 -145 -3
-41 -7 -93 -10 -115 -2 -22 -7 -76 -11 -120 -3 -44 -8 -91 -9 -105 -2 -14 -7
-56 -11 -95 -4 -38 -8 -77 -10 -85 -1 -8 -3 -34 -3 -57 -1 -24 -4 -43 -8 -43
-5 0 -8 803 -8 1785 0 982 3 1785 7 1785 5 0 8 -17 9 -37z"/>
</g>
</svg>
